<?xml version="1.0" encoding="utf-8" ?><svg xmlns="http://www.w3.org/2000/svg" xmlns:xlink="http://www.w3.org/1999/xlink" width="1024" height="1024" viewBox="0 0 1024 1024"><path fill="#212222" d="M509.417 280.153C621.378 278.06 713.853 367.092 716.008 479.051C718.164 591.01 629.184 683.535 517.226 685.753C405.18 687.973 312.566 598.907 310.408 486.86C308.251 374.812 397.369 282.248 509.417 280.153Z"/><path fill="#22B63D" d="M381.484 615.592C325.84 560.361 310.611 476.259 343.353 405.023C376.096 333.786 449.84 290.58 527.99 296.845C610.33 303.446 678.556 363.35 695.752 444.144C712.948 524.939 675.031 607.434 602.516 646.994C530 686.554 440.111 673.784 381.484 615.592Z"/><path fill="#212222" d="M497.9 329.383C508.25 329.277 518.601 329.243 528.952 329.282L528.989 358.298C548.353 359.579 577.621 371.897 592.518 384.103C592.342 399.888 591.817 415.667 590.944 431.429C566.457 413.43 538.972 389.859 506.222 393.149C499.108 393.786 487.107 396.876 483.299 403.628C469.018 428.943 501.275 438.251 517.153 443.208C541.347 450.762 564.721 456.861 584.5 471.824C612.139 492.735 611.996 538.822 591.272 564.166C576.624 582.103 552.116 590.071 529.476 592.087L529.497 613.201C518.301 614.253 509.86 614.806 498.542 614.549L498.513 593.195C491.411 592.171 483.744 591.456 476.721 590.216C456.008 586.728 436.121 579.434 418.064 568.703L417.932 512.971C446.419 536.197 479.133 553.209 516.92 552.012C529.524 551.613 549.251 547.434 547.947 531.005C545.709 508.685 515.666 502.051 498.228 496.307C473.755 488.246 441.967 480.482 427.279 457.344C413.903 436.274 416.682 400.209 434.053 381.809C450.811 364.059 474.453 359.003 497.996 357.949L497.9 329.383Z"/><path fill="#9DE298" d="M381.484 615.592C325.84 560.361 310.611 476.259 343.353 405.023C376.096 333.786 449.84 290.58 527.99 296.845C521.734 300.169 514.154 302.019 507.518 304.53C454.302 324.63 411.995 366.854 393.792 420.99C379.948 462.159 379.016 508.557 399.043 547.953C416.601 582.49 458.959 614.242 498.542 614.549C509.86 614.806 518.301 614.253 529.497 613.201C564.718 606.196 593.441 588.931 613.6 558.69C632.872 529.989 639.906 494.788 633.145 460.885C629.744 444.386 622.885 428.703 613.444 414.751C610.251 410.364 605.992 407.33 603.916 402.18C601.967 397.34 603.074 389.653 609.548 389.617C616.255 389.579 621.741 398.339 625.157 403.264C639.722 424.676 648.543 449.47 650.774 475.27C653.89 513.564 641.606 551.521 616.642 580.728C591.515 610.001 555.605 627.851 517.099 630.21C481.126 632.533 445.71 620.428 418.685 596.573C415.392 593.686 412.304 590.631 409.195 587.55C402.427 593.39 396.865 599.36 390.791 605.865C389.221 607.546 382.903 614.565 381.484 615.592Z"/><path fill="#212222" fill-opacity="0.011764706" d="M594.992 671.618L595.462 671.56C594.943 673.244 595.014 673.416 593.813 674.757L592.827 674.614C592.577 673.606 592.468 672.919 592.314 671.89L593.734 672.609L594.992 671.618Z"/><defs><linearGradient id="gradient_0" gradientUnits="userSpaceOnUse" x1="621.96362" y1="576.85205" x2="313.5163" y2="314.06778"><stop offset="0" stop-color="#5E4760"/><stop offset="1" stop-color="#639660"/></linearGradient></defs><path fill="url(#gradient_0)" d="M396.785 717.852C388.118 713.986 377.149 707.031 369.249 701.758C311.084 662.939 269.43 603.683 255.971 534.649C242.158 465.535 256.78 393.771 296.533 335.571C334.858 278.739 394.23 239.501 461.536 226.523C536.232 212.03 603.259 229.226 665.49 271.214C667.09 274.632 671.605 278.963 674.313 281.624C711.66 318.32 729.655 370.627 735.813 421.648C736.431 426.762 738.867 443.102 736.108 447.116C723.626 383.333 693.662 332.039 639.073 295.24C589.18 261.84 528.078 249.589 469.166 261.175C410.541 272.613 358.861 306.87 325.493 356.41C284.267 417.899 275.684 494.767 301.77 564.057C303.959 569.871 306.959 575.52 309.301 581.302C308.776 588.271 313.251 597.726 315.366 604.067C327.834 641.441 344.941 678.165 377.028 702.705C380.324 705.226 395.904 715.919 396.785 717.852Z"/><path fill="#212222" d="M665.49 271.214C720.951 310.204 758.697 369.587 770.458 436.353C782.453 505.464 766.553 576.51 726.245 633.916C698.332 673.947 653.979 710.683 608.355 728.533C601.745 731.397 588.723 735.863 581.838 737.149C575.03 737.795 569.705 737.302 563.174 735.486C551.739 732.307 529.364 719.124 523.788 708.724C527.984 708.579 532.172 708.267 536.343 707.789C596.121 701.604 650.954 671.8 688.657 625.001C720.706 585.266 738.429 535.889 738.963 484.842C739.018 470.554 737.656 460.992 736.108 447.116C738.867 443.102 736.431 426.762 735.813 421.648C729.655 370.627 711.66 318.32 674.313 281.624C671.605 278.963 667.09 274.632 665.49 271.214Z"/><path fill="#585859" d="M396.785 717.852C395.904 715.919 380.324 705.226 377.028 702.705C344.941 678.165 327.834 641.441 315.366 604.067C313.251 597.726 308.776 588.271 309.301 581.302L313.882 590.091C320.805 602.046 326.109 610.995 334.601 621.982C364.934 660.84 407.112 688.744 454.739 701.462C473.713 706.516 504.266 710.297 523.788 708.724C529.364 719.124 551.739 732.307 563.174 735.486C569.705 737.302 575.03 737.795 581.838 737.149C588.723 735.863 601.745 731.397 608.355 728.533L608.961 728.833C615.857 732.188 647.052 738.172 637.291 751.179C628.298 761.43 604.98 765.31 592.081 767.23C537.602 775.338 480.711 775.425 426.318 766.731C416.289 765.128 386.109 759.894 384.082 748.255C383.759 746.375 384.234 744.445 385.393 742.93C390.497 736.276 411.681 730.352 419.615 729.813C419.741 729.639 419.671 729.79 419.701 729.135C417.197 727.93 414.672 726.769 412.127 725.651C408.299 724.131 400.155 720.084 396.785 717.852Z"/><path fill="#A3A2A2" d="M608.355 728.533L608.961 728.833C615.857 732.188 647.052 738.172 637.291 751.179C628.298 761.43 604.98 765.31 592.081 767.23C537.602 775.338 480.711 775.425 426.318 766.731C416.289 765.128 386.109 759.894 384.082 748.255C383.759 746.375 384.234 744.445 385.393 742.93C390.497 736.276 411.681 730.352 419.615 729.813C422.601 729.689 440.965 736.762 444.66 738.351C440.133 740.911 433.777 744.152 439.088 749.604C443.6 754.535 450.584 756.513 457.061 756.822C461.046 757.012 465.675 756.215 469.551 756.587C490.826 758.626 511.962 760.239 533.314 758.028C540.128 757.323 547.344 755.868 554.143 755.315C556.351 756.623 557.064 757.102 558.999 758.777C565.894 758.069 571.769 756.329 578.136 753.214C583.117 750.778 591.856 745.111 584.008 739.702C583.171 739.125 582.335 738.434 581.602 737.723L581.838 737.149C588.723 735.863 601.745 731.397 608.355 728.533Z"/><path fill="#212222" d="M396.785 717.852C395.904 715.919 380.324 705.226 377.028 702.705C344.941 678.165 327.834 641.441 315.366 604.067C313.251 597.726 308.776 588.271 309.301 581.302L313.882 590.091C313.759 595.046 319.288 605.188 321.594 610.006C336.778 641.721 354.23 671.498 378.608 697.078C383.87 702.576 389.526 707.683 395.53 712.359C399.342 715.369 409.827 722.538 412.127 725.651C408.299 724.131 400.155 720.084 396.785 717.852Z"/><path fill="#212222" d="M485.252 746.364C497.511 748.176 509.769 747.656 522.101 748.198C525.741 748.358 533.743 748.075 536.615 748.929L536.748 749.63L535.398 750.372C522.527 753.153 502.213 754.414 489.536 751.307C488.094 749.904 486.561 747.942 485.252 746.364Z"/></svg>