<svg version="1.1" xmlns="http://www.w3.org/2000/svg" style="display: block;" viewBox="0 0 2048 2048" width="1024" height="1024" preserveAspectRatio="none">
<defs>
	<linearGradient id="Gradient1" gradientUnits="userSpaceOnUse" x1="1717.12" y1="1225.62" x2="1575.51" y2="976.712">
		<stop class="stop0" offset="0" stop-opacity="1" stop-color="rgb(2,144,79)"/>
		<stop class="stop1" offset="1" stop-opacity="1" stop-color="rgb(27,191,104)"/>
	</linearGradient>
	<linearGradient id="Gradient2" gradientUnits="userSpaceOnUse" x1="309.351" y1="1258.14" x2="401.852" y2="1051.61">
		<stop class="stop0" offset="0" stop-opacity="1" stop-color="rgb(2,130,76)"/>
		<stop class="stop1" offset="1" stop-opacity="1" stop-color="rgb(7,161,86)"/>
	</linearGradient>
	<linearGradient id="Gradient3" gradientUnits="userSpaceOnUse" x1="323.856" y1="858.168" x2="432.454" y2="756.666">
		<stop class="stop0" offset="0" stop-opacity="1" stop-color="rgb(12,148,86)"/>
		<stop class="stop1" offset="1" stop-opacity="1" stop-color="rgb(32,200,108)"/>
	</linearGradient>
	<linearGradient id="Gradient4" gradientUnits="userSpaceOnUse" x1="1092.02" y1="1285.6" x2="1091.34" y2="985.763">
		<stop class="stop0" offset="0" stop-opacity="1" stop-color="rgb(171,221,144)"/>
		<stop class="stop1" offset="1" stop-opacity="1" stop-color="rgb(240,251,212)"/>
	</linearGradient>
	<linearGradient id="Gradient5" gradientUnits="userSpaceOnUse" x1="1026.9" y1="1549.74" x2="1021.23" y2="1270.49">
		<stop class="stop0" offset="0" stop-opacity="1" stop-color="rgb(5,68,54)"/>
		<stop class="stop1" offset="1" stop-opacity="1" stop-color="rgb(15,117,76)"/>
	</linearGradient>
	<linearGradient id="Gradient6" gradientUnits="userSpaceOnUse" x1="1080.53" y1="1277.73" x2="957.008" y2="220.83">
		<stop class="stop0" offset="0" stop-opacity="1" stop-color="rgb(11,27,34)"/>
		<stop class="stop1" offset="1" stop-opacity="1" stop-color="rgb(42,63,66)"/>
	</linearGradient>
</defs>
<path transform="translate(0,0)" fill="rgb(255,255,255)" d="M 0 0 L 2048 0 L 2048 2048 L 0 2048 L 0 0 z"/>
<path transform="translate(0,0)" fill="url(#Gradient6)" d="M 476.792 664.113 C 505.925 517.516 592.198 388.539 716.57 305.648 C 842.007 224.783 994.477 197.183 1140.3 228.944 C 1283.29 259.597 1408.26 345.781 1487.72 468.548 C 1517.27 514.376 1540.04 564.228 1555.35 616.563 C 1560.78 635.616 1564.03 655.979 1569.75 675.102 C 1629.52 637.865 1679.77 629.863 1747.32 619.96 L 1749.49 620.091 C 1756.95 652.984 1763.32 684.122 1762.26 718.115 C 1762.09 723.318 1762.17 733.454 1761.09 738.42 C 1759.39 792.424 1731.17 861.369 1691.25 898.115 C 1652.03 934.211 1597.03 957.048 1544.18 961.211 C 1539.07 977.969 1531.44 995.505 1524.42 1011.64 C 1518.08 1021.47 1511.51 1033.74 1506.03 1044.29 C 1484.73 1085.37 1452.82 1118.14 1425.71 1154.89 C 1416.68 1161.62 1402.35 1175.44 1393.41 1183.38 C 1378.46 1196.7 1362.84 1209.25 1346.62 1220.99 C 1366.22 1248.09 1357.75 1259.46 1360.33 1289.37 L 1359.96 1294.11 L 1360.54 1510.74 C 1356.62 1515.33 1347.48 1526.83 1342.55 1528.64 C 1323.48 1535.67 1295.51 1536.09 1275.32 1538.82 C 1253.76 1541.74 1231.46 1543.71 1210.57 1548.49 C 1195.57 1550.56 1162.46 1561.04 1148.74 1567.27 C 1083.6 1596.84 1052.29 1626.57 1025.7 1690.86 C 995.104 1606.36 922.165 1566.11 838.892 1548.08 C 794.655 1541.19 723.598 1540.28 688.65 1516.53 C 688.231 1466.6 688.129 1416.66 688.344 1366.73 C 688.349 1342.06 687.898 1317.42 688.35 1292.76 C 688.743 1271.32 710.646 1274.91 725.863 1274.94 L 789.024 1275.13 C 798.308 1275.16 813.842 1275.88 822.586 1274.15 C 812.766 1270.96 786.937 1260.32 779.95 1258.75 C 722.833 1228.05 670.261 1199.25 625.038 1151.39 C 621.083 1147.2 613.461 1139.55 608.609 1136.83 C 600.313 1125.01 585.879 1110.43 576.205 1097.56 C 556.152 1070.89 541.549 1045.52 525.127 1016.74 C 520.823 1006.48 516.006 996.932 511.528 986.804 C 506.7 975.886 503.062 964.688 497.637 953.982 C 469.188 951.137 451.741 949.009 424.255 938.465 C 370.599 917.881 331.301 877.932 308.544 825.256 C 301.181 807.884 296.012 789.662 293.157 771.012 C 287.086 730.656 290.37 655.935 305.399 617.98 L 309.238 618.928 C 361.534 622.226 415.397 632.781 462.304 656.52 C 467.175 658.985 471.815 661.879 476.792 664.113 z"/>
<path transform="translate(0,0)" fill="url(#Gradient5)" d="M 823.592 1273.76 C 831.619 1278.02 1290.84 1273.15 1344.84 1275.1 C 1353.75 1280.54 1357.8 1283.34 1359.96 1294.11 L 1360.54 1510.74 C 1356.62 1515.33 1347.48 1526.83 1342.55 1528.64 C 1323.48 1535.67 1295.51 1536.09 1275.32 1538.82 C 1253.76 1541.74 1231.46 1543.71 1210.57 1548.49 C 1195.57 1550.56 1162.46 1561.04 1148.74 1567.27 C 1083.6 1596.84 1052.29 1626.57 1025.7 1690.86 C 995.104 1606.36 922.165 1566.11 838.892 1548.08 C 794.655 1541.19 723.598 1540.28 688.65 1516.53 C 688.231 1466.6 688.129 1416.66 688.344 1366.73 C 688.349 1342.06 687.898 1317.42 688.35 1292.76 C 688.743 1271.32 710.646 1274.91 725.863 1274.94 L 789.024 1275.13 C 798.308 1275.16 813.842 1275.88 822.586 1274.15 L 823.592 1273.76 z"/>
<path transform="translate(0,0)" fill="rgb(78,188,90)" d="M 838.892 1548.08 L 1091.24 1547.93 L 1168.27 1547.91 C 1179.75 1547.91 1199.64 1547.34 1210.57 1548.49 C 1195.57 1550.56 1162.46 1561.04 1148.74 1567.27 C 1083.6 1596.84 1052.29 1626.57 1025.7 1690.86 C 995.104 1606.36 922.165 1566.11 838.892 1548.08 z"/>
<path transform="translate(0,0)" fill="rgb(175,225,147)" d="M 1104.18 1335.38 C 1121.08 1331.14 1138.22 1341.4 1142.47 1358.3 C 1146.71 1375.19 1136.46 1392.34 1119.56 1396.59 C 1102.66 1400.84 1085.51 1390.58 1081.26 1373.68 C 1077.02 1356.78 1087.27 1339.63 1104.18 1335.38 z"/>
<path transform="translate(0,0)" fill="rgb(4,87,63)" d="M 1110.17 1348.23 C 1117.3 1348.73 1122.52 1350.7 1125.92 1357.52 C 1128.23 1362.26 1128.45 1367.75 1126.51 1372.66 C 1124.09 1378.94 1120.93 1380.95 1115.16 1383.59 C 1106.18 1383.24 1099.97 1381.1 1096.68 1371.74 C 1094.95 1366.87 1095.39 1361.49 1097.87 1356.95 C 1100.9 1351.51 1104.49 1349.81 1110.17 1348.23 z"/>
<path transform="translate(0,0)" fill="rgb(175,225,147)" d="M 851.837 1335.1 C 868.937 1331.43 885.751 1342.4 889.296 1359.52 C 892.84 1376.65 881.759 1393.39 864.609 1396.81 C 847.628 1400.2 831.093 1389.25 827.583 1372.3 C 824.074 1355.34 834.905 1338.73 851.837 1335.1 z"/>
<path transform="translate(0,0)" fill="rgb(4,87,63)" d="M 852.992 1349.11 C 877.582 1347.08 881.908 1371.3 863.792 1382.86 C 839.426 1384.89 834.891 1360.34 852.992 1349.11 z"/>
<path transform="translate(0,0)" fill="rgb(175,225,147)" d="M 1263.99 1423.33 C 1281.14 1422.1 1296.1 1434.86 1297.61 1451.98 C 1299.12 1469.11 1286.62 1484.28 1269.52 1486.08 C 1258.2 1487.26 1247.13 1482.26 1240.54 1472.98 C 1233.96 1463.69 1232.89 1451.59 1237.75 1441.3 C 1242.61 1431.01 1252.64 1424.14 1263.99 1423.33 z"/>
<path transform="translate(0,0)" fill="rgb(4,87,63)" d="M 1262.08 1437.11 C 1270.09 1436.61 1276.01 1438.29 1280.11 1445.82 C 1282.58 1450.42 1283.02 1455.85 1281.32 1460.79 C 1279.21 1467.12 1275.71 1469.45 1270.02 1472.08 C 1262.17 1472.12 1256.59 1470.84 1252.42 1463.41 C 1249.89 1458.85 1249.4 1453.44 1251.06 1448.49 C 1253.23 1441.9 1256.25 1440.06 1262.08 1437.11 z"/>
<path transform="translate(0,0)" fill="rgb(175,225,147)" d="M 900.827 1335.4 L 915.529 1335.4 C 924.306 1347.81 932.829 1360.4 941.092 1373.16 L 941.152 1335.89 L 957.005 1335.6 L 956.798 1397.04 L 941.424 1396.98 C 932.75 1384.3 924.561 1372.55 916.032 1359.59 L 915.815 1396.89 L 900.754 1396.67 C 900.4 1376.65 900.707 1355.42 900.827 1335.4 z"/>
<path transform="translate(0,0)" fill="rgb(175,225,147)" d="M 962.963 1423.99 L 977.901 1424.07 C 984.791 1435.43 995.23 1449.5 1002.93 1461.37 L 1003.08 1424.35 L 1018.61 1424.02 L 1018.81 1485.08 L 1003.25 1485.13 C 994.695 1472.84 986.388 1460.37 978.332 1447.74 C 979.124 1460.14 978.791 1472.65 978.663 1485.08 L 963.072 1485.1 L 962.963 1423.99 z"/>
<path transform="translate(0,0)" fill="rgb(175,225,147)" d="M 827.99 1424.19 L 843.023 1423.97 C 851.357 1436.24 859.922 1449.25 868.741 1461.08 L 868.388 1424.7 L 883.861 1424.66 L 883.886 1485.18 L 869.225 1485.23 C 861.485 1475.7 851.124 1459.55 844.041 1449.09 L 843.99 1484.98 L 828.438 1484.93 L 827.99 1424.19 z"/>
<path transform="translate(0,0)" fill="rgb(175,225,147)" d="M 1023.03 1335.78 C 1035.92 1335.63 1062.08 1332.97 1068.91 1344.55 C 1076.49 1357.4 1068.39 1366.84 1057.94 1372.53 C 1061.59 1379.05 1070.41 1389.88 1069.39 1395.55 C 1066.19 1397.79 1064.28 1396.98 1059.75 1397 L 1056.09 1396.77 C 1051.46 1393.54 1043.49 1376.49 1039.06 1369.76 C 1038.53 1377.88 1038.83 1388.68 1038.82 1397 L 1023.05 1396.88 L 1023.03 1335.78 z"/>
<path transform="translate(0,0)" fill="rgb(4,87,63)" d="M 1038.54 1348.14 C 1045.15 1348 1051 1346.9 1055.41 1352.34 C 1056.47 1356.38 1055.89 1357.08 1054.52 1361.26 C 1048.45 1363.29 1045.14 1362.79 1038.82 1362.64 L 1038.54 1348.14 z"/>
<path transform="translate(0,0)" fill="rgb(175,225,147)" d="M 1177.29 1424.03 C 1186.4 1424.12 1205.19 1422.65 1212.63 1425.67 C 1231.42 1433.3 1231.09 1452.66 1212.31 1460.68 C 1216.85 1468.94 1221.79 1475.65 1225.48 1484.47 C 1222.84 1485.56 1216.98 1485.18 1213.75 1485.19 L 1211.05 1485.29 C 1206.68 1483.33 1197.83 1464.7 1193.19 1458.12 C 1192.79 1466.65 1192.93 1476.44 1192.84 1485.07 L 1177.5 1485.06 L 1177.29 1424.03 z"/>
<path transform="translate(0,0)" fill="rgb(4,87,63)" d="M 1192.81 1436.88 C 1198.99 1436.89 1205.69 1435.71 1209.72 1441.03 C 1210.86 1445.1 1210.5 1445.45 1209.06 1449.65 C 1203.68 1451.59 1198.64 1451.37 1192.87 1451.6 L 1192.81 1436.88 z"/>
<path transform="translate(0,0)" fill="rgb(175,225,147)" d="M 915.114 1424 L 932.049 1424.01 C 939.301 1444.32 947.582 1464.92 955.371 1485.09 L 938.798 1485.11 C 937.627 1480.94 937.025 1475.58 933.213 1473.68 L 912.799 1473.44 L 908.259 1485.09 L 892.186 1485.12 C 897.936 1467.53 908.362 1442.37 915.114 1424 z"/>
<path transform="translate(0,0)" fill="rgb(4,87,63)" d="M 923.065 1443.57 C 925.724 1446.85 930.352 1456.99 928.948 1461.18 L 926.015 1462.03 C 922.289 1462.04 920.284 1462.85 917.961 1460.12 C 917.415 1455.89 921.269 1448.17 923.065 1443.57 z"/>
<path transform="translate(0,0)" fill="rgb(175,225,147)" d="M 784.119 1335.12 C 802.213 1334.2 809.876 1338.19 818.892 1353.8 C 813.119 1354.66 809.079 1355.47 803.446 1356.77 C 802.373 1355.61 801.268 1354.47 800.132 1353.37 C 794.204 1347.72 784.462 1346.31 778.911 1353.17 C 764.369 1371.15 785.964 1396.82 802.275 1375.31 C 807.779 1376.35 813.536 1377.13 819.089 1377.97 C 814.141 1386.51 809.199 1392.9 799.063 1396.07 C 791.04 1398.54 782.358 1397.62 775.033 1393.52 C 767.374 1389.2 761.83 1381.91 759.702 1373.38 C 754.673 1353.43 765.067 1339.91 784.119 1335.12 z"/>
<path transform="translate(0,0)" fill="rgb(175,225,147)" d="M 1055.89 1423.26 C 1067.79 1422.73 1085.24 1428.86 1087.41 1442.17 C 1084.62 1443.95 1076.16 1444.29 1072.39 1444.66 C 1066.68 1438.99 1058.83 1433.84 1051.47 1439.33 C 1034.41 1452.07 1049.01 1483.84 1069.12 1467.11 C 1071.45 1465.18 1070.59 1465.28 1073.46 1464.63 L 1089.2 1465.26 C 1084.71 1474.37 1078.28 1481.78 1068.21 1484.76 C 1060.07 1487.17 1051.3 1486.09 1043.98 1481.8 C 1036.45 1477.23 1031.13 1469.75 1029.3 1461.12 C 1024.81 1440.66 1036.76 1427.59 1055.89 1423.26 z"/>
<path transform="translate(0,0)" fill="rgb(175,225,147)" d="M 1098.97 1424.16 C 1105.54 1424.17 1132.93 1423.39 1137 1424.66 C 1138.63 1426.82 1138.89 1428.52 1138.11 1431.55 C 1135.02 1443.59 1124.83 1430.83 1115.01 1436.92 C 1113.53 1439.98 1114.01 1444.39 1114.06 1447.94 C 1121.24 1448.07 1128.29 1446.12 1133.78 1449.17 C 1136.01 1453.12 1135.22 1454.6 1135.19 1459.58 C 1130.39 1459.54 1118.39 1458.96 1114.56 1460.54 L 1113.94 1462.75 C 1113.89 1464.1 1113.84 1465.45 1113.82 1466.8 C 1113.72 1476.64 1130.46 1472.97 1138.1 1472.98 C 1138.23 1476.71 1138.79 1481.76 1136.89 1484.71 C 1128.65 1485.83 1108.15 1485.18 1098.9 1485.08 C 1098.79 1464.77 1098.81 1444.47 1098.97 1424.16 z"/>
<path transform="translate(0,0)" fill="rgb(175,225,147)" d="M 1242.82 1335.83 C 1255.89 1335.7 1268.96 1335.71 1282.03 1335.87 L 1282.01 1347.98 L 1258.17 1347.99 C 1258.13 1348.85 1258.09 1349.72 1258.06 1350.59 C 1257.91 1355.25 1257.57 1356.06 1260.34 1359.03 C 1264.44 1360.63 1273.91 1359.57 1279.5 1359.58 L 1279.69 1371.21 C 1274.83 1371.18 1262.63 1370.61 1258.77 1371.81 L 1258.03 1373.82 C 1257.89 1377.13 1257.32 1379.89 1258.87 1382.68 C 1263.7 1386.44 1274.68 1384.54 1282.63 1384.74 L 1282.55 1396.9 L 1242.92 1396.55 L 1242.82 1335.83 z"/>
<path transform="translate(0,0)" fill="rgb(175,225,147)" d="M 749.043 1424.06 L 790.861 1423.96 L 790.754 1436.11 L 764.601 1436.23 L 764.484 1448.72 C 770.731 1448.92 778.085 1447.28 782.841 1450.1 C 785.083 1454.12 784.31 1455.04 784.298 1460.03 L 764.224 1459.96 L 764.585 1485.18 L 749.032 1485.15 L 749.043 1424.06 z"/>
<path transform="translate(0,0)" fill="rgb(175,225,147)" d="M 964.986 1335.9 C 981.189 1335.44 998.463 1335.7 1014.75 1335.67 L 1014.69 1347.72 L 997.188 1347.7 L 997.254 1379.5 L 997.129 1396.67 L 982.705 1396.76 C 982.441 1380.29 982.441 1363.82 982.705 1347.34 L 973.89 1347.49 C 970.071 1347.59 969.482 1348.1 966.236 1346.01 C 964.139 1342.88 964.83 1339.83 964.986 1335.9 z"/>
<path transform="translate(0,0)" fill="rgb(175,225,147)" d="M 1154.01 1335.94 L 1169.35 1335.72 C 1169.25 1352.08 1169.32 1368.44 1169.55 1384.81 L 1190.45 1384.92 L 1190.48 1396.64 C 1180.31 1397.26 1164.64 1396.76 1154.05 1396.73 L 1154.01 1335.94 z"/>
<path transform="translate(0,0)" fill="rgb(175,225,147)" d="M 1198.28 1335.94 L 1213.46 1335.77 L 1213.54 1384.38 C 1221.2 1384.81 1227.98 1382.78 1233.65 1386.16 C 1235.82 1390.24 1235 1390.38 1234.94 1395.72 C 1231.57 1397.61 1204.48 1396.47 1198.75 1396.38 C 1198.33 1376.38 1198.41 1355.97 1198.28 1335.94 z"/>
<path transform="translate(0,0)" fill="rgb(175,225,147)" d="M 800.116 1424.08 L 815.894 1424.07 L 815.772 1485.1 L 800.241 1485.25 C 800.328 1464.86 800.286 1444.47 800.116 1424.08 z"/>
<path transform="translate(0,0)" fill="rgb(175,225,147)" d="M 1149.74 1424 L 1165.35 1423.84 C 1164.88 1444.04 1165.14 1465.06 1165.11 1485.32 L 1149.87 1485.21 C 1150.05 1464.81 1150 1444.4 1149.74 1424 z"/>
<path transform="translate(0,0)" fill="url(#Gradient4)" d="M 823.592 1273.76 C 825.196 1258.93 826.299 1245.71 835.273 1233.08 C 843.456 1221.61 855.842 1213.83 869.734 1211.44 C 884.855 1208.93 902.688 1213.38 915.041 1222.51 C 932.138 1235.15 926.628 1241.88 929.212 1256.9 C 931.571 1258.72 933.637 1257.93 937.463 1257.89 C 938.055 1257.53 938.647 1257.16 939.239 1256.79 C 940.387 1198.69 939.351 1138.5 939.938 1080.44 C 940.857 1064.37 937.817 1044.66 940.369 1029 C 950.274 968.232 1045.24 968.798 1046.46 1035.45 C 1046.95 1061.78 1046.91 1087.77 1046.78 1113.85 L 1046.25 1210.85 C 1046.21 1219.42 1045.46 1250.3 1047.05 1257.32 C 1050.16 1258.26 1051.91 1257.8 1055.13 1257.46 C 1058.37 1254.04 1056.93 1225.98 1056.9 1219.72 L 1056.57 1151.88 C 1056.51 1126.73 1051.93 1099.39 1073.56 1082.39 C 1084.18 1073.61 1098.25 1070.94 1111.89 1072.21 C 1166.96 1077.35 1159.48 1129.38 1158.85 1168.59 C 1158.35 1191.11 1158.12 1213.63 1158.17 1236.15 C 1158.16 1241.38 1157.15 1254.64 1159.96 1258.03 C 1163.65 1258.07 1164.18 1258.59 1167.11 1256.98 C 1171.47 1235.34 1163.66 1206.15 1169.19 1182.92 C 1176.6 1151.8 1206.06 1137.69 1235.82 1146.67 C 1277.97 1159.38 1268.02 1202.64 1268.19 1236 C 1268.23 1242.72 1266.84 1250.15 1270.22 1256.43 C 1273.36 1258.67 1271.62 1258.01 1275.74 1258.14 C 1283.67 1244.31 1266.83 1217.48 1300.17 1201.2 L 1301.5 1200.57 C 1321.33 1204.77 1331.59 1206.24 1346.62 1220.99 C 1366.22 1248.09 1357.75 1259.46 1360.33 1289.37 L 1359.96 1294.11 C 1357.8 1283.34 1353.75 1280.54 1344.84 1275.1 C 1290.84 1273.15 831.619 1278.02 823.592 1273.76 z"/>
<path transform="translate(0,0)" fill="rgb(78,188,90)" d="M 1747.32 619.96 L 1749.49 620.091 C 1756.95 652.984 1763.32 684.122 1762.26 718.115 C 1762.09 723.318 1762.17 733.454 1761.09 738.42 C 1759.39 792.424 1731.17 861.369 1691.25 898.115 C 1652.03 934.211 1597.03 957.048 1544.18 961.211 C 1548.06 952.268 1551.68 941.294 1555.01 931.998 C 1566.04 903.131 1570.25 864.669 1575.74 834.308 C 1577.04 809.755 1577.8 785.175 1578.03 760.588 C 1578.31 733.508 1573.7 701.882 1569.75 675.102 C 1629.52 637.865 1679.77 629.863 1747.32 619.96 z"/>
<path transform="translate(0,0)" fill="rgb(78,188,90)" d="M 1569.75 675.102 C 1629.52 637.865 1679.77 629.863 1747.32 619.96 C 1734.35 635.082 1710.15 652.882 1693.86 665.718 C 1669.91 684.207 1646.45 703.33 1623.52 723.068 C 1617.89 727.951 1582.08 762.487 1580.03 763.307 C 1578.24 761.898 1578.93 762.789 1578.03 760.588 C 1578.31 733.508 1573.7 701.882 1569.75 675.102 z"/>
<path transform="translate(0,0)" fill="rgb(3,136,78)" d="M 1747.32 619.96 L 1749.49 620.091 C 1743.69 630.959 1732.75 645.127 1725.41 655.754 C 1690.62 706.115 1649.11 753.188 1608.27 798.729 C 1601.45 806.335 1582.5 828.107 1575.74 834.308 C 1577.04 809.755 1577.8 785.175 1578.03 760.588 C 1578.93 762.789 1578.24 761.898 1580.03 763.307 C 1582.08 762.487 1617.89 727.951 1623.52 723.068 C 1646.45 703.33 1669.91 684.207 1693.86 665.718 C 1710.15 652.882 1734.35 635.082 1747.32 619.96 z"/>
<path transform="translate(0,0)" fill="rgb(3,136,78)" d="M 1555.01 931.998 C 1572.07 932.82 1618.76 917.989 1634.59 910.58 C 1697.01 880.904 1736.5 821.021 1750.34 754.514 C 1752.57 743.789 1755.62 727.001 1761.17 717.871 C 1760.87 724.919 1760.4 731.387 1761.09 738.42 C 1759.39 792.424 1731.17 861.369 1691.25 898.115 C 1652.03 934.211 1597.03 957.048 1544.18 961.211 C 1548.06 952.268 1551.68 941.294 1555.01 931.998 z"/>
<path transform="translate(0,0)" fill="url(#Gradient3)" d="M 305.399 617.98 L 309.238 618.928 C 361.534 622.226 415.397 632.781 462.304 656.52 C 467.175 658.985 471.815 661.879 476.792 664.113 C 469.542 712.668 467.142 732.335 466.889 783.074 C 467.489 803.162 469.94 826.893 469.924 846.133 C 480.085 884.321 484.405 914.567 497.637 953.982 C 469.188 951.137 451.741 949.009 424.255 938.465 C 370.599 917.881 331.301 877.932 308.544 825.256 C 301.181 807.884 296.012 789.662 293.157 771.012 C 287.086 730.656 290.37 655.935 305.399 617.98 z"/>
<path transform="translate(0,0)" fill="rgb(78,188,90)" d="M 309.238 618.928 C 361.534 622.226 415.397 632.781 462.304 656.52 C 467.175 658.985 471.815 661.879 476.792 664.113 C 469.542 712.668 467.142 732.335 466.889 783.074 C 463.39 777.692 459.394 772.498 455.348 767.563 C 416.428 720.081 376.379 673.605 327.365 636.158 C 320.727 631.087 314.448 625.539 309.238 618.928 z"/>
<path transform="translate(0,0)" fill="rgb(3,136,78)" d="M 305.399 617.98 L 309.238 618.928 C 314.448 625.539 320.727 631.087 327.365 636.158 C 376.379 673.605 416.428 720.081 455.348 767.563 C 459.394 772.498 463.39 777.692 466.889 783.074 C 467.489 803.162 469.94 826.893 469.924 846.133 C 468.649 840.491 459.887 824.942 456.542 819.016 C 427.51 767.757 393.719 719.344 355.618 674.415 C 344.397 661.357 332.477 648.693 321.058 635.828 C 316.801 631.033 308.346 622.799 305.399 617.98 z"/>
<path transform="translate(0,0)" fill="rgb(175,225,147)" d="M 928.252 1029.05 C 851.235 1002.02 789.598 955.672 753.424 880.693 C 720.719 812.67 716.656 734.373 742.146 663.331 C 766.949 592.706 818.763 534.81 886.213 502.353 C 955.041 469.626 1034.09 465.735 1105.8 491.544 C 1178.09 516.931 1237.15 570.317 1269.68 639.693 C 1335.57 781.091 1268.79 951.041 1127.97 1014.42 C 1106.88 1023.91 1081.26 1032.88 1058.25 1036.78 C 1056.97 1015.03 1053.2 1002.74 1037.49 986.9 C 1010.51 966.968 984.253 967.086 955.386 982.454 C 937.53 997.452 932.719 1006.27 928.252 1029.05 z"/>
<path transform="translate(0,0)" fill="rgb(78,188,90)" d="M 928.252 1029.05 C 851.235 1002.02 789.598 955.672 753.424 880.693 C 720.719 812.67 716.656 734.373 742.146 663.331 C 766.949 592.706 818.763 534.81 886.213 502.353 C 955.041 469.626 1034.09 465.735 1105.8 491.544 C 1178.09 516.931 1237.15 570.317 1269.68 639.693 C 1335.57 781.091 1268.79 951.041 1127.97 1014.42 C 1106.88 1023.91 1081.26 1032.88 1058.25 1036.78 C 1056.97 1015.03 1053.2 1002.74 1037.49 986.9 C 1044.32 985.174 1053.21 984.206 1060.44 982.764 C 1144.69 965.951 1215.45 897.464 1236.58 813.773 C 1252.18 754.037 1242.92 690.534 1210.93 637.73 C 1178.43 583.555 1127.43 547.246 1066.22 532.371 C 1006.27 517.704 942.946 527.357 890.086 559.221 C 836.011 591.793 797.398 644.841 783.023 706.31 C 769.185 764.942 779.303 826.672 811.135 877.818 C 843.179 929.186 896.209 968.79 955.386 982.454 C 937.53 997.452 932.719 1006.27 928.252 1029.05 z"/>
<path transform="translate(0,0)" fill="rgb(16,33,40)" d="M 995.915 574.184 L 1027.12 574.003 L 1027.05 604.789 C 1070.4 606.148 1126.15 623.945 1133.51 678.582 C 1135.37 692.368 1073 690.882 1062.23 689.742 C 1052.38 666.563 1054.61 661.122 1027.13 654.081 L 1027.12 723.544 C 1056.72 728.801 1093.18 734.856 1116.17 755.266 C 1133.82 770.972 1144.49 793.052 1145.83 816.636 C 1147.19 841.662 1137.48 867.593 1120.52 885.935 C 1094.98 913.537 1063.94 919.738 1028 921.191 L 1027.98 946.323 L 1008.92 946.099 L 996.899 946.086 L 996.563 921.565 C 952.173 918.779 906.841 900.483 886.714 858.271 C 880.987 846.26 879.06 836.073 876.612 823.158 C 894.548 820.875 927.135 818.795 944.994 819.059 C 960.193 849.706 959.233 857.845 996.213 868.018 C 997.155 840.805 996.771 811.774 996.816 784.407 C 966.839 778.31 930.984 771.288 907.567 749.951 C 893.552 737.354 885.268 719.595 884.623 700.762 C 881.659 632.66 935.2 606.008 995.883 603.898 L 995.915 574.184 z"/>
<path transform="translate(0,0)" fill="rgb(175,225,147)" d="M 1026.99 791.429 C 1061.28 799.265 1090.21 821.873 1060.36 856.305 C 1049.35 865.057 1040.05 866.87 1026.68 868.564 L 1026.99 791.429 z"/>
<path transform="translate(0,0)" fill="rgb(175,225,147)" d="M 988.872 653.137 C 991.958 652.804 992.369 652.843 995.48 653.114 C 998.307 656.973 996.861 709.736 996.685 717.793 C 988.053 715.295 982.732 713.653 974.497 710.211 C 943.24 691.43 958.644 662.57 988.872 653.137 z"/>
<path transform="translate(0,0)" fill="rgb(255,255,255)" d="M 1022.03 294.775 C 1051.02 294.222 1077.79 299.719 1105.97 305.056 C 1318.99 345.395 1482.53 531.031 1486.52 749.747 C 1482.14 750.583 1435.76 750.061 1427.3 750.034 C 1423.98 648.734 1382.95 552.322 1312.27 479.684 C 1236.05 400.756 1131.74 355.124 1022.04 352.718 L 1022.03 294.775 z"/>
<path transform="translate(0,0)" fill="rgb(255,255,255)" d="M 546.976 762.911 C 566.857 762.871 586.738 763 606.617 763.297 C 608.787 846.199 635.931 926.514 684.499 993.734 C 731.28 1057.41 795.916 1105.76 870.212 1132.65 C 887.095 1138.95 911.277 1146.65 928.927 1149.38 L 928.786 1213.05 C 913.121 1211.15 898.967 1209.48 883.546 1205.7 C 809.673 1187.6 736.436 1143.81 682.965 1090.19 C 595.679 1003.68 546.699 885.802 546.976 762.911 z"/>
<path transform="translate(0,0)" fill="rgb(175,225,147)" d="M 982.191 390.411 C 984.109 390.132 989.63 390.011 991.818 389.911 C 991.99 407.279 991.934 424.648 991.649 442.015 C 924.394 445.472 859.938 470.037 807.441 512.22 C 752.662 556.645 714.527 618.299 699.242 687.152 C 695.34 704.678 693.752 721.025 691.854 738.821 C 677.015 738.46 661.632 738.597 646.75 738.539 L 636.869 738.259 C 642.055 658.327 672.452 582.098 723.691 520.53 C 791.74 439.384 877.929 399.686 982.191 390.411 z"/>
<path transform="translate(0,0)" fill="rgb(175,225,147)" d="M 1024.92 389.756 C 1106.87 393.281 1185.39 423.579 1248.47 476.006 C 1313.89 529.139 1358.69 603.463 1375.13 686.128 C 1378.76 704.165 1380.3 720.587 1382.05 738.922 L 1330.79 738.921 C 1323.32 665.315 1302.94 608.443 1253.97 552.165 C 1192.49 481.524 1116.98 448.364 1025.01 441.81 L 1024.92 389.756 z"/>
<path transform="translate(0,0)" fill="rgb(175,225,147)" d="M 643.755 769.473 C 659.96 769.292 676.166 769.29 692.37 769.466 C 695.089 814.272 706.739 858.082 726.635 898.32 C 770.656 985.341 838.996 1033.94 929.543 1063.7 C 929.053 1074.02 930.75 1106.34 927.659 1113.82 C 831.892 1090.28 751.535 1035.05 697.832 951.791 C 668.314 906.705 649.63 855.399 643.242 801.889 C 642.228 793.581 640.103 778.269 641.752 770.674 L 643.755 769.473 z"/>
<path transform="translate(0,0)" fill="rgb(175,225,147)" d="M 1331.16 768.983 L 1383.06 768.737 C 1381.89 910.131 1288.85 1032.86 1164.34 1092.76 C 1161.35 1093.05 1158.35 1086.36 1156.15 1083.46 C 1144.74 1068.42 1130.95 1064.38 1114.15 1059.21 C 1156.74 1041.99 1192.23 1023.1 1226.51 991.828 C 1289.09 934.014 1326.64 854.06 1331.16 768.983 z"/>
<path transform="translate(0,0)" fill="url(#Gradient2)" d="M 144.954 940.454 C 258.772 909.218 380.524 918.287 479.146 984.525 C 486.163 989.238 519.611 1015.77 525.127 1016.74 C 541.549 1045.52 556.152 1070.89 576.205 1097.56 C 585.879 1110.43 600.313 1125.01 608.609 1136.83 C 613.461 1139.55 621.083 1147.2 625.038 1151.39 C 670.261 1199.25 722.833 1228.05 779.95 1258.75 C 764.062 1259.31 748.394 1258.56 732.492 1258.85 C 716.059 1259.73 693.046 1254.87 680.43 1268.11 C 668.574 1280.55 671.929 1300.19 671.77 1316 C 671.655 1327.44 672 1339.1 672.004 1350.51 L 671.907 1500.3 C 639.261 1468.4 608.558 1433.82 575.864 1401.84 C 561.838 1388.12 549.611 1371.26 533.021 1360.45 C 504.143 1344.22 469.387 1351.35 447.223 1374.07 C 434.613 1386.79 427.714 1404.09 428.109 1421.99 C 428.741 1444.75 447.757 1472.52 458.906 1492.64 C 472.579 1517.68 486.578 1542.54 500.9 1567.21 C 514.123 1589.81 528.041 1613.53 540.413 1636.55 C 546.481 1647.84 550.299 1669.7 554.946 1682.98 C 524.323 1668.28 493.487 1647.92 465.483 1628.75 C 325.304 1532.81 226.349 1420.55 138.319 1277.13 C 215.135 1310.26 267.809 1306.42 344.148 1276.33 C 339.791 1273.6 333.339 1270.36 328.748 1268.32 C 229.932 1224.36 175.151 1125.58 154.18 1023.72 C 152.02 1013.22 140.554 947.919 144.954 940.454 z"/>
<path transform="translate(0,0)" fill="rgb(4,87,63)" d="M 608.609 1136.83 C 613.461 1139.55 621.083 1147.2 625.038 1151.39 C 670.261 1199.25 722.833 1228.05 779.95 1258.75 C 764.062 1259.31 748.394 1258.56 732.492 1258.85 C 716.059 1259.73 693.046 1254.87 680.43 1268.11 C 668.574 1280.55 671.929 1300.19 671.77 1316 C 671.655 1327.44 672 1339.1 672.004 1350.51 L 671.907 1500.3 C 639.261 1468.4 608.558 1433.82 575.864 1401.84 C 561.838 1388.12 549.611 1371.26 533.021 1360.45 C 504.143 1344.22 469.387 1351.35 447.223 1374.07 C 434.613 1386.79 427.714 1404.09 428.109 1421.99 C 428.741 1444.75 447.757 1472.52 458.906 1492.64 C 472.579 1517.68 486.578 1542.54 500.9 1567.21 C 514.123 1589.81 528.041 1613.53 540.413 1636.55 C 546.481 1647.84 550.299 1669.7 554.946 1682.98 C 524.323 1668.28 493.487 1647.92 465.483 1628.75 C 325.304 1532.81 226.349 1420.55 138.319 1277.13 C 215.135 1310.26 267.809 1306.42 344.148 1276.33 C 358.952 1280.41 373.471 1286.89 388.717 1290.97 C 464.122 1311.12 534.058 1289.87 599.563 1252.06 C 609.67 1246.23 619.078 1237.17 629.143 1230.98 L 630.807 1229.98 C 631.572 1206.19 616.602 1159.63 608.609 1136.83 z"/>
<path transform="translate(0,0)" fill="rgb(78,188,90)" d="M 144.954 940.454 C 258.772 909.218 380.524 918.287 479.146 984.525 C 486.163 989.238 519.611 1015.77 525.127 1016.74 C 541.549 1045.52 556.152 1070.89 576.205 1097.56 C 585.879 1110.43 600.313 1125.01 608.609 1136.83 C 616.602 1159.63 631.572 1206.19 630.807 1229.98 C 626.009 1222.9 619.641 1218.63 613.446 1213.06 C 583.032 1185.69 551.349 1160.93 518.283 1136.78 C 441.053 1079.62 357.976 1030.83 270.447 991.202 C 250.416 982.185 227.961 974.145 207.384 966.229 C 188.559 958.986 161.801 951.011 144.954 940.454 z"/>
<path transform="translate(0,0)" fill="url(#Gradient1)" d="M 1524.42 1011.64 C 1527.85 1011.2 1563.1 982.085 1570.31 977.971 C 1652.72 930.95 1747.75 915.674 1841.24 929.26 C 1862.4 932.334 1882.34 937.197 1903.3 942.288 C 1903.26 950.379 1903.2 956.565 1902.41 964.582 C 1888.73 1086.49 1846.38 1206.93 1727.79 1266.26 C 1721 1269.66 1710.28 1273.99 1704.19 1277.82 C 1779.94 1306.87 1835.92 1309.65 1912.31 1277.9 C 1827.83 1412.18 1721.41 1536.08 1590.04 1625.76 C 1558.57 1647.24 1526.5 1668.51 1492.32 1685.52 C 1499.69 1653.46 1510.7 1632.91 1525.45 1603.92 C 1543.36 1568.07 1563 1533.09 1584.3 1499.13 C 1597.05 1478.96 1610.92 1466.9 1619 1443.6 C 1638.37 1387.79 1571.78 1339.2 1522.35 1351.55 C 1497.15 1357.85 1459.47 1405.87 1440.7 1426.29 L 1376.54 1495.44 C 1376.8 1453.83 1376.82 1412.21 1376.6 1370.6 C 1376.57 1350.87 1377.2 1329.82 1375.79 1310.14 C 1375.14 1301.22 1367.52 1294.02 1360.33 1289.37 C 1357.75 1259.46 1366.22 1248.09 1346.62 1220.99 C 1362.84 1209.25 1378.46 1196.7 1393.41 1183.38 C 1402.35 1175.44 1416.68 1161.62 1425.71 1154.89 C 1452.82 1118.14 1484.73 1085.37 1506.03 1044.29 C 1511.51 1033.74 1518.08 1021.47 1524.42 1011.64 z"/>
<path transform="translate(0,0)" fill="rgb(4,87,63)" d="M 1346.62 1220.99 C 1362.84 1209.25 1378.46 1196.7 1393.41 1183.38 C 1402.35 1175.44 1416.68 1161.62 1425.71 1154.89 C 1422.69 1170.07 1417.56 1184.96 1414.13 1199.88 C 1407.69 1227.9 1402.74 1243.35 1387.17 1267.5 C 1392.33 1262.33 1404.45 1250.81 1407.97 1245.19 C 1414.57 1252.61 1431.21 1258.01 1440.49 1261.76 C 1524.29 1295.65 1617.48 1309.39 1704.19 1277.82 C 1779.94 1306.87 1835.92 1309.65 1912.31 1277.9 C 1827.83 1412.18 1721.41 1536.08 1590.04 1625.76 C 1558.57 1647.24 1526.5 1668.51 1492.32 1685.52 C 1499.69 1653.46 1510.7 1632.91 1525.45 1603.92 C 1543.36 1568.07 1563 1533.09 1584.3 1499.13 C 1597.05 1478.96 1610.92 1466.9 1619 1443.6 C 1638.37 1387.79 1571.78 1339.2 1522.35 1351.55 C 1497.15 1357.85 1459.47 1405.87 1440.7 1426.29 L 1376.54 1495.44 C 1376.8 1453.83 1376.82 1412.21 1376.6 1370.6 C 1376.57 1350.87 1377.2 1329.82 1375.79 1310.14 C 1375.14 1301.22 1367.52 1294.02 1360.33 1289.37 C 1357.75 1259.46 1366.22 1248.09 1346.62 1220.99 z"/>
<path transform="translate(0,0)" fill="rgb(3,136,78)" d="M 1407.97 1245.19 C 1413.57 1242.13 1431.17 1245.9 1437.77 1247.19 C 1541.84 1267.48 1658.07 1270.11 1749.72 1208.75 C 1815.31 1164.84 1857.63 1097.22 1882.07 1023.26 C 1884.81 1014.97 1898.62 958.37 1900.05 956.885 L 1902.41 964.582 C 1888.73 1086.49 1846.38 1206.93 1727.79 1266.26 C 1721 1269.66 1710.28 1273.99 1704.19 1277.82 C 1617.48 1309.39 1524.29 1295.65 1440.49 1261.76 C 1431.21 1258.01 1414.57 1252.61 1407.97 1245.19 z"/>
<path transform="translate(0,0)" fill="rgb(16,33,40)" d="M 493.762 1371.24 C 525.455 1367.85 542.363 1395.84 561.74 1415.35 C 578.248 1431.96 594.178 1449.05 610.906 1465.61 C 635.362 1489.83 657.804 1518.74 687.371 1536.84 C 730.467 1560.4 781.519 1557.15 829.032 1564.43 C 918.795 1578.2 1011.65 1638.59 1012.73 1738.28 C 1013.08 1770.46 1005.5 1804.43 994.301 1834.68 L 969.134 1833.88 C 943.324 1830.84 916.36 1829.58 889.815 1826.37 C 798.688 1815.34 709.3 1795.62 629.417 1748.56 C 612.654 1738.69 599.071 1728.1 588.362 1711.7 C 570.693 1684.63 568.74 1647.92 554.658 1620.28 C 547.553 1606.34 534.692 1586.97 526.293 1572.61 C 509.418 1543.46 492.77 1514.17 476.349 1484.76 C 473.29 1479.36 468.52 1469.69 465.18 1465.01 C 438.163 1427.15 440.369 1382.36 493.762 1371.24 z"/>
<path transform="translate(0,0)" fill="rgb(16,33,40)" d="M 1533.72 1375.15 C 1549.49 1373.04 1566.89 1379.71 1579.48 1388.97 C 1590.67 1397.19 1599.9 1408.88 1601.66 1423.03 C 1602.94 1433.3 1599.51 1443.19 1595.1 1452.32 C 1585.67 1471.86 1570.66 1488.04 1559.41 1506.48 C 1541.74 1535.44 1526.09 1566.13 1510.08 1596.06 C 1501.13 1612.79 1490.95 1629.43 1482.87 1646.52 C 1478.52 1655.73 1478.63 1664.11 1477.78 1674.02 C 1476.47 1689.23 1468.39 1704.26 1458.8 1715.88 C 1413.28 1771.01 1279.47 1805.64 1210.75 1818.12 C 1175.11 1824.59 1139.28 1828.41 1103.24 1831.74 L 1056.59 1834.93 L 1055.16 1831.38 C 1036.35 1784.39 1029.66 1724.31 1051.06 1677.49 C 1089.72 1592.87 1185.11 1565.36 1270.47 1557.59 C 1288.77 1554.84 1344.88 1553.19 1357.62 1541.5 C 1397.87 1504.53 1437.23 1456.19 1477.45 1418.36 C 1497.82 1399.2 1508.11 1385.16 1533.72 1375.15 z"/>
</svg>